<mxfile host="app.diagrams.net" modified="2023-04-22T14:35:09.153Z" agent="Mozilla/5.0 (Windows NT 10.0; Win64; x64) AppleWebKit/537.36 (KHTML, like Gecko) Chrome/112.0.0.0 Safari/537.36" etag="T7nIxLrT_8LdzPWdxPI1" version="21.1.1" type="device">
  <diagram name="Page-1" id="j83MnHOtofaq5eIB3z__">
    <mxGraphModel dx="993" dy="591" grid="1" gridSize="10" guides="1" tooltips="1" connect="1" arrows="1" fold="1" page="1" pageScale="1" pageWidth="850" pageHeight="1100" math="0" shadow="0">
      <root>
        <mxCell id="0" />
        <mxCell id="1" parent="0" />
        <mxCell id="naJt_FXr0nLqM0hUbWSA-133" value="" style="rounded=0;whiteSpace=wrap;html=1;fillColor=none;dashed=1;strokeWidth=3;" parent="1" vertex="1">
          <mxGeometry x="360" y="620" width="234" height="290" as="geometry" />
        </mxCell>
        <mxCell id="naJt_FXr0nLqM0hUbWSA-137" value="" style="rounded=0;whiteSpace=wrap;html=1;fillColor=none;dashed=1;strokeWidth=3;" parent="1" vertex="1">
          <mxGeometry x="550" y="200" width="540" height="350" as="geometry" />
        </mxCell>
        <mxCell id="naJt_FXr0nLqM0hUbWSA-131" value="" style="rounded=0;whiteSpace=wrap;html=1;fillColor=none;dashed=1;strokeWidth=3;" parent="1" vertex="1">
          <mxGeometry x="650" y="600" width="330" height="420" as="geometry" />
        </mxCell>
        <mxCell id="naJt_FXr0nLqM0hUbWSA-118" style="edgeStyle=orthogonalEdgeStyle;rounded=0;orthogonalLoop=1;jettySize=auto;html=1;strokeColor=#0A0A0A;" parent="1" source="naJt_FXr0nLqM0hUbWSA-3" target="naJt_FXr0nLqM0hUbWSA-115" edge="1">
          <mxGeometry relative="1" as="geometry">
            <Array as="points">
              <mxPoint x="700" y="790" />
            </Array>
          </mxGeometry>
        </mxCell>
        <mxCell id="naJt_FXr0nLqM0hUbWSA-3" value="&lt;font style=&quot;font-size: 24px;&quot;&gt;+&lt;/font&gt;" style="ellipse;whiteSpace=wrap;html=1;aspect=fixed;" parent="1" vertex="1">
          <mxGeometry x="680" y="690" width="40" height="40" as="geometry" />
        </mxCell>
        <mxCell id="naJt_FXr0nLqM0hUbWSA-51" style="edgeStyle=orthogonalEdgeStyle;rounded=0;orthogonalLoop=1;jettySize=auto;html=1;entryX=0.5;entryY=0;entryDx=0;entryDy=0;" parent="1" source="naJt_FXr0nLqM0hUbWSA-5" target="naJt_FXr0nLqM0hUbWSA-44" edge="1">
          <mxGeometry relative="1" as="geometry">
            <Array as="points">
              <mxPoint x="520" y="300" />
              <mxPoint x="520" y="230" />
              <mxPoint x="620" y="230" />
            </Array>
          </mxGeometry>
        </mxCell>
        <mxCell id="naJt_FXr0nLqM0hUbWSA-52" style="edgeStyle=orthogonalEdgeStyle;rounded=0;orthogonalLoop=1;jettySize=auto;html=1;entryX=0.5;entryY=1;entryDx=0;entryDy=0;" parent="1" source="naJt_FXr0nLqM0hUbWSA-5" target="naJt_FXr0nLqM0hUbWSA-42" edge="1">
          <mxGeometry relative="1" as="geometry">
            <Array as="points">
              <mxPoint x="520" y="300" />
              <mxPoint x="520" y="231" />
            </Array>
          </mxGeometry>
        </mxCell>
        <mxCell id="naJt_FXr0nLqM0hUbWSA-5" value="&lt;font style=&quot;font-size: 24px;&quot;&gt;x&lt;/font&gt;" style="ellipse;whiteSpace=wrap;html=1;aspect=fixed;" parent="1" vertex="1">
          <mxGeometry x="440" y="280" width="40" height="40" as="geometry" />
        </mxCell>
        <mxCell id="naJt_FXr0nLqM0hUbWSA-20" style="edgeStyle=orthogonalEdgeStyle;rounded=0;orthogonalLoop=1;jettySize=auto;html=1;" parent="1" source="naJt_FXr0nLqM0hUbWSA-10" target="naJt_FXr0nLqM0hUbWSA-5" edge="1">
          <mxGeometry relative="1" as="geometry">
            <Array as="points">
              <mxPoint x="460" y="380" />
            </Array>
          </mxGeometry>
        </mxCell>
        <mxCell id="naJt_FXr0nLqM0hUbWSA-21" style="edgeStyle=orthogonalEdgeStyle;rounded=0;orthogonalLoop=1;jettySize=auto;html=1;" parent="1" source="naJt_FXr0nLqM0hUbWSA-10" target="naJt_FXr0nLqM0hUbWSA-16" edge="1">
          <mxGeometry relative="1" as="geometry">
            <Array as="points">
              <mxPoint x="460" y="380" />
            </Array>
          </mxGeometry>
        </mxCell>
        <mxCell id="naJt_FXr0nLqM0hUbWSA-10" value="&lt;font style=&quot;font-size: 18px;&quot;&gt;LO&lt;/font&gt;" style="shape=or;whiteSpace=wrap;html=1;fontSize=12;direction=east;" parent="1" vertex="1">
          <mxGeometry x="414" y="360" width="30" height="40" as="geometry" />
        </mxCell>
        <mxCell id="naJt_FXr0nLqM0hUbWSA-18" style="edgeStyle=orthogonalEdgeStyle;rounded=0;orthogonalLoop=1;jettySize=auto;html=1;" parent="1" source="naJt_FXr0nLqM0hUbWSA-12" target="naJt_FXr0nLqM0hUbWSA-5" edge="1">
          <mxGeometry relative="1" as="geometry">
            <Array as="points">
              <mxPoint x="400" y="385" />
              <mxPoint x="400" y="300" />
            </Array>
          </mxGeometry>
        </mxCell>
        <mxCell id="naJt_FXr0nLqM0hUbWSA-19" style="edgeStyle=orthogonalEdgeStyle;rounded=0;orthogonalLoop=1;jettySize=auto;html=1;" parent="1" source="naJt_FXr0nLqM0hUbWSA-12" target="naJt_FXr0nLqM0hUbWSA-16" edge="1">
          <mxGeometry relative="1" as="geometry">
            <Array as="points">
              <mxPoint x="400" y="385" />
              <mxPoint x="400" y="460" />
            </Array>
          </mxGeometry>
        </mxCell>
        <mxCell id="naJt_FXr0nLqM0hUbWSA-12" value="&lt;font style=&quot;font-size: 18px;&quot;&gt;ADC&lt;br&gt;Input&lt;/font&gt;" style="shape=or;whiteSpace=wrap;html=1;fontSize=12;direction=east;" parent="1" vertex="1">
          <mxGeometry x="300" y="350" width="60" height="70" as="geometry" />
        </mxCell>
        <mxCell id="naJt_FXr0nLqM0hUbWSA-55" style="edgeStyle=orthogonalEdgeStyle;rounded=0;orthogonalLoop=1;jettySize=auto;html=1;" parent="1" source="naJt_FXr0nLqM0hUbWSA-16" target="naJt_FXr0nLqM0hUbWSA-54" edge="1">
          <mxGeometry relative="1" as="geometry">
            <Array as="points">
              <mxPoint x="520" y="460" />
              <mxPoint x="520" y="520" />
            </Array>
          </mxGeometry>
        </mxCell>
        <mxCell id="naJt_FXr0nLqM0hUbWSA-56" style="edgeStyle=orthogonalEdgeStyle;rounded=0;orthogonalLoop=1;jettySize=auto;html=1;" parent="1" source="naJt_FXr0nLqM0hUbWSA-16" target="naJt_FXr0nLqM0hUbWSA-53" edge="1">
          <mxGeometry relative="1" as="geometry">
            <Array as="points">
              <mxPoint x="520" y="460" />
              <mxPoint x="520" y="520" />
              <mxPoint x="620" y="520" />
            </Array>
          </mxGeometry>
        </mxCell>
        <mxCell id="naJt_FXr0nLqM0hUbWSA-16" value="&lt;font style=&quot;font-size: 24px;&quot;&gt;x&lt;/font&gt;" style="ellipse;whiteSpace=wrap;html=1;aspect=fixed;" parent="1" vertex="1">
          <mxGeometry x="440" y="440" width="40" height="40" as="geometry" />
        </mxCell>
        <mxCell id="naJt_FXr0nLqM0hUbWSA-46" style="edgeStyle=orthogonalEdgeStyle;rounded=0;orthogonalLoop=1;jettySize=auto;html=1;" parent="1" source="naJt_FXr0nLqM0hUbWSA-41" target="naJt_FXr0nLqM0hUbWSA-44" edge="1">
          <mxGeometry relative="1" as="geometry">
            <Array as="points">
              <mxPoint x="560" y="380" />
              <mxPoint x="560" y="275" />
            </Array>
          </mxGeometry>
        </mxCell>
        <mxCell id="naJt_FXr0nLqM0hUbWSA-57" style="edgeStyle=orthogonalEdgeStyle;rounded=0;orthogonalLoop=1;jettySize=auto;html=1;" parent="1" source="naJt_FXr0nLqM0hUbWSA-41" target="naJt_FXr0nLqM0hUbWSA-53" edge="1">
          <mxGeometry relative="1" as="geometry">
            <Array as="points">
              <mxPoint x="560" y="380" />
              <mxPoint x="560" y="474" />
            </Array>
          </mxGeometry>
        </mxCell>
        <mxCell id="naJt_FXr0nLqM0hUbWSA-41" value="&lt;span style=&quot;font-size: 18px;&quot;&gt;ROM&lt;/span&gt;" style="shape=or;whiteSpace=wrap;html=1;fontSize=12;direction=east;" parent="1" vertex="1">
          <mxGeometry x="470" y="360" width="50" height="40" as="geometry" />
        </mxCell>
        <mxCell id="Hn6BxWAOLXY0UYhHqzSq-6" style="edgeStyle=orthogonalEdgeStyle;rounded=0;orthogonalLoop=1;jettySize=auto;html=1;exitX=0.5;exitY=0;exitDx=0;exitDy=0;entryX=0.5;entryY=0;entryDx=0;entryDy=0;" edge="1" parent="1" source="naJt_FXr0nLqM0hUbWSA-42" target="Hn6BxWAOLXY0UYhHqzSq-5">
          <mxGeometry relative="1" as="geometry" />
        </mxCell>
        <mxCell id="naJt_FXr0nLqM0hUbWSA-42" value="T0" style="ellipse;whiteSpace=wrap;html=1;aspect=fixed;direction=south;" parent="1" vertex="1">
          <mxGeometry x="680" y="211" width="40" height="40" as="geometry" />
        </mxCell>
        <mxCell id="Hn6BxWAOLXY0UYhHqzSq-7" style="edgeStyle=orthogonalEdgeStyle;rounded=0;orthogonalLoop=1;jettySize=auto;html=1;exitX=0.5;exitY=1;exitDx=0;exitDy=0;entryX=0;entryY=0.5;entryDx=0;entryDy=0;" edge="1" parent="1" source="naJt_FXr0nLqM0hUbWSA-44" target="Hn6BxWAOLXY0UYhHqzSq-2">
          <mxGeometry relative="1" as="geometry" />
        </mxCell>
        <mxCell id="naJt_FXr0nLqM0hUbWSA-44" value="&lt;font style=&quot;font-size: 24px;&quot;&gt;x&lt;/font&gt;" style="ellipse;whiteSpace=wrap;html=1;aspect=fixed;" parent="1" vertex="1">
          <mxGeometry x="600" y="255" width="40" height="40" as="geometry" />
        </mxCell>
        <mxCell id="naJt_FXr0nLqM0hUbWSA-48" value="M1/1" style="text;html=1;strokeColor=none;fillColor=none;align=center;verticalAlign=middle;whiteSpace=wrap;rounded=0;fontSize=18;" parent="1" vertex="1">
          <mxGeometry x="650" y="281" width="40" height="30" as="geometry" />
        </mxCell>
        <mxCell id="naJt_FXr0nLqM0hUbWSA-49" value="Q" style="text;html=1;strokeColor=none;fillColor=none;align=center;verticalAlign=middle;whiteSpace=wrap;rounded=0;fontSize=18;" parent="1" vertex="1">
          <mxGeometry x="466" y="480" width="30" height="30" as="geometry" />
        </mxCell>
        <mxCell id="naJt_FXr0nLqM0hUbWSA-50" value="I" style="text;html=1;strokeColor=none;fillColor=none;align=center;verticalAlign=middle;whiteSpace=wrap;rounded=0;fontSize=18;" parent="1" vertex="1">
          <mxGeometry x="470" y="255" width="26" height="30" as="geometry" />
        </mxCell>
        <mxCell id="Hn6BxWAOLXY0UYhHqzSq-14" style="edgeStyle=orthogonalEdgeStyle;rounded=0;orthogonalLoop=1;jettySize=auto;html=1;exitX=0.5;exitY=0;exitDx=0;exitDy=0;entryX=0;entryY=0.5;entryDx=0;entryDy=0;" edge="1" parent="1" source="naJt_FXr0nLqM0hUbWSA-53" target="Hn6BxWAOLXY0UYhHqzSq-10">
          <mxGeometry relative="1" as="geometry" />
        </mxCell>
        <mxCell id="naJt_FXr0nLqM0hUbWSA-53" value="&lt;font style=&quot;font-size: 24px;&quot;&gt;x&lt;/font&gt;" style="ellipse;whiteSpace=wrap;html=1;aspect=fixed;" parent="1" vertex="1">
          <mxGeometry x="600" y="454" width="40" height="40" as="geometry" />
        </mxCell>
        <mxCell id="Hn6BxWAOLXY0UYhHqzSq-12" style="edgeStyle=orthogonalEdgeStyle;rounded=0;orthogonalLoop=1;jettySize=auto;html=1;exitX=0.5;exitY=0;exitDx=0;exitDy=0;entryX=0.5;entryY=1;entryDx=0;entryDy=0;" edge="1" parent="1" source="naJt_FXr0nLqM0hUbWSA-54" target="Hn6BxWAOLXY0UYhHqzSq-11">
          <mxGeometry relative="1" as="geometry">
            <Array as="points">
              <mxPoint x="770" y="519" />
            </Array>
          </mxGeometry>
        </mxCell>
        <mxCell id="naJt_FXr0nLqM0hUbWSA-54" value="T0" style="ellipse;whiteSpace=wrap;html=1;aspect=fixed;direction=south;" parent="1" vertex="1">
          <mxGeometry x="680" y="499" width="40" height="40" as="geometry" />
        </mxCell>
        <mxCell id="naJt_FXr0nLqM0hUbWSA-87" style="edgeStyle=orthogonalEdgeStyle;rounded=0;orthogonalLoop=1;jettySize=auto;html=1;strokeColor=#FF8000;" parent="1" source="naJt_FXr0nLqM0hUbWSA-74" target="naJt_FXr0nLqM0hUbWSA-83" edge="1">
          <mxGeometry relative="1" as="geometry">
            <Array as="points">
              <mxPoint x="410" y="770" />
              <mxPoint x="490" y="770" />
            </Array>
          </mxGeometry>
        </mxCell>
        <mxCell id="naJt_FXr0nLqM0hUbWSA-74" value="T0" style="ellipse;whiteSpace=wrap;html=1;aspect=fixed;direction=south;" parent="1" vertex="1">
          <mxGeometry x="390" y="670" width="40" height="40" as="geometry" />
        </mxCell>
        <mxCell id="naJt_FXr0nLqM0hUbWSA-91" style="edgeStyle=orthogonalEdgeStyle;rounded=0;orthogonalLoop=1;jettySize=auto;html=1;strokeColor=#0A0A0A;" parent="1" source="naJt_FXr0nLqM0hUbWSA-75" target="naJt_FXr0nLqM0hUbWSA-104" edge="1">
          <mxGeometry relative="1" as="geometry">
            <mxPoint x="650" y="770" as="targetPoint" />
            <Array as="points">
              <mxPoint x="620" y="770" />
              <mxPoint x="620" y="630" />
            </Array>
          </mxGeometry>
        </mxCell>
        <mxCell id="naJt_FXr0nLqM0hUbWSA-109" style="edgeStyle=orthogonalEdgeStyle;rounded=0;orthogonalLoop=1;jettySize=auto;html=1;strokeColor=#0A0A0A;" parent="1" source="naJt_FXr0nLqM0hUbWSA-75" target="naJt_FXr0nLqM0hUbWSA-3" edge="1">
          <mxGeometry relative="1" as="geometry">
            <mxPoint x="610" y="730" as="targetPoint" />
            <Array as="points">
              <mxPoint x="620" y="770" />
              <mxPoint x="620" y="710" />
            </Array>
          </mxGeometry>
        </mxCell>
        <mxCell id="naJt_FXr0nLqM0hUbWSA-75" value="&lt;span style=&quot;font-size: 24px;&quot;&gt;-&lt;/span&gt;" style="ellipse;whiteSpace=wrap;html=1;aspect=fixed;" parent="1" vertex="1">
          <mxGeometry x="550" y="750" width="40" height="40" as="geometry" />
        </mxCell>
        <mxCell id="naJt_FXr0nLqM0hUbWSA-88" style="edgeStyle=orthogonalEdgeStyle;rounded=0;orthogonalLoop=1;jettySize=auto;html=1;strokeColor=#0A0A0A;" parent="1" source="naJt_FXr0nLqM0hUbWSA-76" target="naJt_FXr0nLqM0hUbWSA-75" edge="1">
          <mxGeometry relative="1" as="geometry">
            <Array as="points">
              <mxPoint x="570" y="730" />
            </Array>
          </mxGeometry>
        </mxCell>
        <mxCell id="naJt_FXr0nLqM0hUbWSA-76" value="&lt;font style=&quot;font-size: 24px;&quot;&gt;x&lt;/font&gt;" style="ellipse;whiteSpace=wrap;html=1;aspect=fixed;" parent="1" vertex="1">
          <mxGeometry x="470" y="710" width="40" height="40" as="geometry" />
        </mxCell>
        <mxCell id="naJt_FXr0nLqM0hUbWSA-77" value="I" style="text;html=1;strokeColor=none;fillColor=none;align=center;verticalAlign=middle;whiteSpace=wrap;rounded=0;fontSize=18;" parent="1" vertex="1">
          <mxGeometry x="390" y="630" width="40" height="40" as="geometry" />
        </mxCell>
        <mxCell id="naJt_FXr0nLqM0hUbWSA-78" value="Q" style="text;html=1;strokeColor=none;fillColor=none;align=center;verticalAlign=middle;whiteSpace=wrap;rounded=0;fontSize=18;" parent="1" vertex="1">
          <mxGeometry x="390" y="870" width="40" height="40" as="geometry" />
        </mxCell>
        <mxCell id="naJt_FXr0nLqM0hUbWSA-86" style="edgeStyle=orthogonalEdgeStyle;rounded=0;orthogonalLoop=1;jettySize=auto;html=1;entryX=0.5;entryY=1;entryDx=0;entryDy=0;" parent="1" source="naJt_FXr0nLqM0hUbWSA-79" target="naJt_FXr0nLqM0hUbWSA-76" edge="1">
          <mxGeometry relative="1" as="geometry">
            <Array as="points">
              <mxPoint x="450" y="850" />
              <mxPoint x="450" y="770" />
              <mxPoint x="490" y="770" />
            </Array>
          </mxGeometry>
        </mxCell>
        <mxCell id="naJt_FXr0nLqM0hUbWSA-79" value="T0" style="ellipse;whiteSpace=wrap;html=1;aspect=fixed;direction=south;" parent="1" vertex="1">
          <mxGeometry x="390" y="830" width="40" height="40" as="geometry" />
        </mxCell>
        <mxCell id="naJt_FXr0nLqM0hUbWSA-90" style="edgeStyle=orthogonalEdgeStyle;rounded=0;orthogonalLoop=1;jettySize=auto;html=1;strokeColor=#0A0A0A;" parent="1" source="naJt_FXr0nLqM0hUbWSA-83" target="naJt_FXr0nLqM0hUbWSA-75" edge="1">
          <mxGeometry relative="1" as="geometry">
            <Array as="points">
              <mxPoint x="570" y="810" />
            </Array>
          </mxGeometry>
        </mxCell>
        <mxCell id="naJt_FXr0nLqM0hUbWSA-83" value="&lt;font style=&quot;font-size: 24px;&quot;&gt;x&lt;/font&gt;" style="ellipse;whiteSpace=wrap;html=1;aspect=fixed;" parent="1" vertex="1">
          <mxGeometry x="470" y="790" width="40" height="40" as="geometry" />
        </mxCell>
        <mxCell id="naJt_FXr0nLqM0hUbWSA-107" style="edgeStyle=orthogonalEdgeStyle;rounded=0;orthogonalLoop=1;jettySize=auto;html=1;strokeColor=#0A0A0A;" parent="1" source="naJt_FXr0nLqM0hUbWSA-104" target="naJt_FXr0nLqM0hUbWSA-105" edge="1">
          <mxGeometry relative="1" as="geometry" />
        </mxCell>
        <mxCell id="naJt_FXr0nLqM0hUbWSA-110" style="edgeStyle=orthogonalEdgeStyle;rounded=0;orthogonalLoop=1;jettySize=auto;html=1;strokeColor=#0A0A0A;" parent="1" source="naJt_FXr0nLqM0hUbWSA-104" target="naJt_FXr0nLqM0hUbWSA-3" edge="1">
          <mxGeometry relative="1" as="geometry" />
        </mxCell>
        <mxCell id="naJt_FXr0nLqM0hUbWSA-104" value="T0" style="ellipse;whiteSpace=wrap;html=1;aspect=fixed;direction=south;" parent="1" vertex="1">
          <mxGeometry x="680" y="610" width="40" height="40" as="geometry" />
        </mxCell>
        <mxCell id="naJt_FXr0nLqM0hUbWSA-108" style="edgeStyle=orthogonalEdgeStyle;rounded=0;orthogonalLoop=1;jettySize=auto;html=1;strokeColor=#0A0A0A;" parent="1" source="naJt_FXr0nLqM0hUbWSA-105" target="naJt_FXr0nLqM0hUbWSA-106" edge="1">
          <mxGeometry relative="1" as="geometry" />
        </mxCell>
        <mxCell id="naJt_FXr0nLqM0hUbWSA-113" style="edgeStyle=orthogonalEdgeStyle;rounded=0;orthogonalLoop=1;jettySize=auto;html=1;strokeColor=#0A0A0A;" parent="1" source="naJt_FXr0nLqM0hUbWSA-105" target="naJt_FXr0nLqM0hUbWSA-111" edge="1">
          <mxGeometry relative="1" as="geometry">
            <Array as="points">
              <mxPoint x="780" y="710" />
            </Array>
          </mxGeometry>
        </mxCell>
        <mxCell id="naJt_FXr0nLqM0hUbWSA-105" value="T0" style="ellipse;whiteSpace=wrap;html=1;aspect=fixed;direction=south;" parent="1" vertex="1">
          <mxGeometry x="760" y="610" width="40" height="40" as="geometry" />
        </mxCell>
        <mxCell id="naJt_FXr0nLqM0hUbWSA-114" style="edgeStyle=orthogonalEdgeStyle;rounded=0;orthogonalLoop=1;jettySize=auto;html=1;strokeColor=#0A0A0A;" parent="1" source="naJt_FXr0nLqM0hUbWSA-106" target="naJt_FXr0nLqM0hUbWSA-111" edge="1">
          <mxGeometry relative="1" as="geometry">
            <Array as="points">
              <mxPoint x="860" y="710" />
            </Array>
          </mxGeometry>
        </mxCell>
        <mxCell id="naJt_FXr0nLqM0hUbWSA-106" value="T0" style="ellipse;whiteSpace=wrap;html=1;aspect=fixed;direction=south;" parent="1" vertex="1">
          <mxGeometry x="840" y="610" width="40" height="40" as="geometry" />
        </mxCell>
        <mxCell id="naJt_FXr0nLqM0hUbWSA-117" style="edgeStyle=orthogonalEdgeStyle;rounded=0;orthogonalLoop=1;jettySize=auto;html=1;strokeColor=#0A0A0A;" parent="1" source="naJt_FXr0nLqM0hUbWSA-111" target="naJt_FXr0nLqM0hUbWSA-115" edge="1">
          <mxGeometry relative="1" as="geometry">
            <Array as="points">
              <mxPoint x="820" y="790" />
            </Array>
          </mxGeometry>
        </mxCell>
        <mxCell id="naJt_FXr0nLqM0hUbWSA-111" value="&lt;font style=&quot;font-size: 24px;&quot;&gt;+&lt;/font&gt;" style="ellipse;whiteSpace=wrap;html=1;aspect=fixed;" parent="1" vertex="1">
          <mxGeometry x="800" y="690" width="40" height="40" as="geometry" />
        </mxCell>
        <mxCell id="naJt_FXr0nLqM0hUbWSA-122" style="edgeStyle=orthogonalEdgeStyle;rounded=0;orthogonalLoop=1;jettySize=auto;html=1;strokeColor=#0A0A0A;" parent="1" source="naJt_FXr0nLqM0hUbWSA-115" target="naJt_FXr0nLqM0hUbWSA-119" edge="1">
          <mxGeometry relative="1" as="geometry" />
        </mxCell>
        <mxCell id="naJt_FXr0nLqM0hUbWSA-115" value="&lt;font style=&quot;font-size: 24px;&quot;&gt;+&lt;/font&gt;" style="ellipse;whiteSpace=wrap;html=1;aspect=fixed;" parent="1" vertex="1">
          <mxGeometry x="740" y="770" width="40" height="40" as="geometry" />
        </mxCell>
        <mxCell id="naJt_FXr0nLqM0hUbWSA-127" style="edgeStyle=orthogonalEdgeStyle;rounded=0;orthogonalLoop=1;jettySize=auto;html=1;strokeColor=#0A0A0A;" parent="1" source="naJt_FXr0nLqM0hUbWSA-119" target="naJt_FXr0nLqM0hUbWSA-123" edge="1">
          <mxGeometry relative="1" as="geometry" />
        </mxCell>
        <mxCell id="naJt_FXr0nLqM0hUbWSA-119" value="&lt;font style=&quot;font-size: 24px;&quot;&gt;&amp;gt;&lt;/font&gt;" style="ellipse;whiteSpace=wrap;html=1;aspect=fixed;direction=east;" parent="1" vertex="1">
          <mxGeometry x="740" y="830" width="40" height="40" as="geometry" />
        </mxCell>
        <mxCell id="naJt_FXr0nLqM0hUbWSA-120" style="edgeStyle=orthogonalEdgeStyle;rounded=0;orthogonalLoop=1;jettySize=auto;html=1;strokeColor=#0A0A0A;" parent="1" source="naJt_FXr0nLqM0hUbWSA-121" target="naJt_FXr0nLqM0hUbWSA-119" edge="1">
          <mxGeometry relative="1" as="geometry" />
        </mxCell>
        <mxCell id="naJt_FXr0nLqM0hUbWSA-124" style="edgeStyle=orthogonalEdgeStyle;rounded=0;orthogonalLoop=1;jettySize=auto;html=1;strokeColor=#0A0A0A;" parent="1" source="naJt_FXr0nLqM0hUbWSA-121" target="naJt_FXr0nLqM0hUbWSA-123" edge="1">
          <mxGeometry relative="1" as="geometry">
            <Array as="points">
              <mxPoint x="840" y="948" />
            </Array>
          </mxGeometry>
        </mxCell>
        <mxCell id="naJt_FXr0nLqM0hUbWSA-121" value="&lt;span style=&quot;font-size: 18px;&quot;&gt;0&lt;/span&gt;" style="shape=or;whiteSpace=wrap;html=1;fontSize=12;direction=south;" parent="1" vertex="1">
          <mxGeometry x="820" y="835" width="40" height="30" as="geometry" />
        </mxCell>
        <mxCell id="naJt_FXr0nLqM0hUbWSA-123" value="&lt;span style=&quot;font-size: 18px;&quot;&gt;Output&lt;/span&gt;" style="shape=or;whiteSpace=wrap;html=1;fontSize=12;direction=north;" parent="1" vertex="1">
          <mxGeometry x="725" y="930" width="70" height="35" as="geometry" />
        </mxCell>
        <mxCell id="naJt_FXr0nLqM0hUbWSA-126" style="edgeStyle=orthogonalEdgeStyle;rounded=0;orthogonalLoop=1;jettySize=auto;html=1;strokeColor=#0A0A0A;" parent="1" source="naJt_FXr0nLqM0hUbWSA-125" target="naJt_FXr0nLqM0hUbWSA-123" edge="1">
          <mxGeometry relative="1" as="geometry">
            <Array as="points">
              <mxPoint x="680" y="948" />
            </Array>
          </mxGeometry>
        </mxCell>
        <mxCell id="naJt_FXr0nLqM0hUbWSA-125" value="&lt;span style=&quot;font-size: 18px;&quot;&gt;1&lt;/span&gt;" style="shape=or;whiteSpace=wrap;html=1;fontSize=12;direction=south;" parent="1" vertex="1">
          <mxGeometry x="660" y="835" width="40" height="30" as="geometry" />
        </mxCell>
        <mxCell id="naJt_FXr0nLqM0hUbWSA-128" value="Comparison to see if data is above 0" style="text;html=1;strokeColor=none;fillColor=none;align=center;verticalAlign=middle;whiteSpace=wrap;rounded=0;" parent="1" vertex="1">
          <mxGeometry x="860" y="890" width="110" height="30" as="geometry" />
        </mxCell>
        <mxCell id="naJt_FXr0nLqM0hUbWSA-130" value="Output is either 0 or 1" style="text;html=1;strokeColor=none;fillColor=none;align=center;verticalAlign=middle;whiteSpace=wrap;rounded=0;" parent="1" vertex="1">
          <mxGeometry x="715" y="980" width="90" height="30" as="geometry" />
        </mxCell>
        <mxCell id="naJt_FXr0nLqM0hUbWSA-134" value="&lt;font style=&quot;font-size: 18px;&quot;&gt;&lt;b&gt;Delay and Multiply&lt;/b&gt;&lt;/font&gt;" style="text;html=1;strokeColor=none;fillColor=none;align=center;verticalAlign=middle;whiteSpace=wrap;rounded=0;" parent="1" vertex="1">
          <mxGeometry x="390" y="590" width="180" height="30" as="geometry" />
        </mxCell>
        <mxCell id="naJt_FXr0nLqM0hUbWSA-136" value="&lt;font style=&quot;font-size: 18px;&quot;&gt;&lt;b&gt;Slicer&lt;/b&gt;&lt;/font&gt;" style="text;html=1;strokeColor=none;fillColor=none;align=center;verticalAlign=middle;whiteSpace=wrap;rounded=0;" parent="1" vertex="1">
          <mxGeometry x="780" y="570" width="60" height="30" as="geometry" />
        </mxCell>
        <mxCell id="naJt_FXr0nLqM0hUbWSA-138" value="&lt;font style=&quot;font-size: 18px;&quot;&gt;&lt;b&gt;FIR low-pass filter&lt;/b&gt;&lt;/font&gt;" style="text;html=1;strokeColor=none;fillColor=none;align=center;verticalAlign=middle;whiteSpace=wrap;rounded=0;" parent="1" vertex="1">
          <mxGeometry x="740" y="160" width="180" height="30" as="geometry" />
        </mxCell>
        <mxCell id="naJt_FXr0nLqM0hUbWSA-139" value="" style="rounded=0;whiteSpace=wrap;html=1;fillColor=none;dashed=1;strokeWidth=3;" parent="1" vertex="1">
          <mxGeometry x="290" y="240" width="254" height="290" as="geometry" />
        </mxCell>
        <mxCell id="naJt_FXr0nLqM0hUbWSA-140" value="&lt;font style=&quot;font-size: 18px;&quot;&gt;&lt;b&gt;Mixer&lt;/b&gt;&lt;/font&gt;" style="text;html=1;strokeColor=none;fillColor=none;align=center;verticalAlign=middle;whiteSpace=wrap;rounded=0;" parent="1" vertex="1">
          <mxGeometry x="327" y="210" width="180" height="30" as="geometry" />
        </mxCell>
        <mxCell id="Hn6BxWAOLXY0UYhHqzSq-2" value="&lt;font style=&quot;font-size: 24px;&quot;&gt;+&lt;/font&gt;" style="ellipse;whiteSpace=wrap;html=1;aspect=fixed;" vertex="1" parent="1">
          <mxGeometry x="750" y="311" width="40" height="40" as="geometry" />
        </mxCell>
        <mxCell id="Hn6BxWAOLXY0UYhHqzSq-3" value="M1/2" style="text;html=1;strokeColor=none;fillColor=none;align=center;verticalAlign=middle;whiteSpace=wrap;rounded=0;fontSize=18;" vertex="1" parent="1">
          <mxGeometry x="660" y="449" width="30" height="30" as="geometry" />
        </mxCell>
        <mxCell id="Hn6BxWAOLXY0UYhHqzSq-8" style="edgeStyle=orthogonalEdgeStyle;rounded=0;orthogonalLoop=1;jettySize=auto;html=1;exitX=0.5;exitY=1;exitDx=0;exitDy=0;" edge="1" parent="1" source="Hn6BxWAOLXY0UYhHqzSq-5" target="Hn6BxWAOLXY0UYhHqzSq-2">
          <mxGeometry relative="1" as="geometry" />
        </mxCell>
        <mxCell id="Hn6BxWAOLXY0UYhHqzSq-5" value="&lt;font style=&quot;font-size: 24px;&quot;&gt;x&lt;/font&gt;" style="ellipse;whiteSpace=wrap;html=1;aspect=fixed;" vertex="1" parent="1">
          <mxGeometry x="750" y="251" width="40" height="40" as="geometry" />
        </mxCell>
        <mxCell id="Hn6BxWAOLXY0UYhHqzSq-9" value="M2/1" style="text;html=1;strokeColor=none;fillColor=none;align=center;verticalAlign=middle;whiteSpace=wrap;rounded=0;fontSize=18;" vertex="1" parent="1">
          <mxGeometry x="800" y="281" width="40" height="30" as="geometry" />
        </mxCell>
        <mxCell id="Hn6BxWAOLXY0UYhHqzSq-10" value="&lt;font style=&quot;font-size: 24px;&quot;&gt;+&lt;/font&gt;" style="ellipse;whiteSpace=wrap;html=1;aspect=fixed;" vertex="1" parent="1">
          <mxGeometry x="750" y="400" width="40" height="40" as="geometry" />
        </mxCell>
        <mxCell id="Hn6BxWAOLXY0UYhHqzSq-13" style="edgeStyle=orthogonalEdgeStyle;rounded=0;orthogonalLoop=1;jettySize=auto;html=1;exitX=0.5;exitY=0;exitDx=0;exitDy=0;entryX=0.5;entryY=1;entryDx=0;entryDy=0;" edge="1" parent="1" source="Hn6BxWAOLXY0UYhHqzSq-11" target="Hn6BxWAOLXY0UYhHqzSq-10">
          <mxGeometry relative="1" as="geometry" />
        </mxCell>
        <mxCell id="Hn6BxWAOLXY0UYhHqzSq-11" value="&lt;font style=&quot;font-size: 24px;&quot;&gt;x&lt;/font&gt;" style="ellipse;whiteSpace=wrap;html=1;aspect=fixed;" vertex="1" parent="1">
          <mxGeometry x="750" y="459" width="40" height="40" as="geometry" />
        </mxCell>
        <mxCell id="Hn6BxWAOLXY0UYhHqzSq-15" value="M2/2" style="text;html=1;strokeColor=none;fillColor=none;align=center;verticalAlign=middle;whiteSpace=wrap;rounded=0;fontSize=18;" vertex="1" parent="1">
          <mxGeometry x="790" y="440" width="40" height="30" as="geometry" />
        </mxCell>
        <mxCell id="Hn6BxWAOLXY0UYhHqzSq-16" value="P1/1" style="text;html=1;strokeColor=none;fillColor=none;align=center;verticalAlign=middle;whiteSpace=wrap;rounded=0;fontSize=18;" vertex="1" parent="1">
          <mxGeometry x="700" y="340" width="40" height="30" as="geometry" />
        </mxCell>
        <mxCell id="Hn6BxWAOLXY0UYhHqzSq-17" value="P1/2" style="text;html=1;strokeColor=none;fillColor=none;align=center;verticalAlign=middle;whiteSpace=wrap;rounded=0;fontSize=18;" vertex="1" parent="1">
          <mxGeometry x="700" y="381" width="40" height="30" as="geometry" />
        </mxCell>
        <mxCell id="Hn6BxWAOLXY0UYhHqzSq-18" value="" style="endArrow=none;dashed=1;html=1;dashPattern=1 3;strokeWidth=5;rounded=0;" edge="1" parent="1">
          <mxGeometry width="50" height="50" relative="1" as="geometry">
            <mxPoint x="877" y="230.58" as="sourcePoint" />
            <mxPoint x="807" y="230.58" as="targetPoint" />
          </mxGeometry>
        </mxCell>
        <mxCell id="Hn6BxWAOLXY0UYhHqzSq-20" value="" style="endArrow=none;dashed=1;html=1;dashPattern=1 3;strokeWidth=5;rounded=0;" edge="1" parent="1">
          <mxGeometry width="50" height="50" relative="1" as="geometry">
            <mxPoint x="877" y="269.58" as="sourcePoint" />
            <mxPoint x="807" y="269.58" as="targetPoint" />
          </mxGeometry>
        </mxCell>
        <mxCell id="Hn6BxWAOLXY0UYhHqzSq-21" value="" style="endArrow=none;dashed=1;html=1;dashPattern=1 3;strokeWidth=5;rounded=0;" edge="1" parent="1">
          <mxGeometry width="50" height="50" relative="1" as="geometry">
            <mxPoint x="877" y="330.58" as="sourcePoint" />
            <mxPoint x="807" y="330.58" as="targetPoint" />
          </mxGeometry>
        </mxCell>
        <mxCell id="Hn6BxWAOLXY0UYhHqzSq-22" value="" style="endArrow=none;dashed=1;html=1;dashPattern=1 3;strokeWidth=5;rounded=0;" edge="1" parent="1">
          <mxGeometry width="50" height="50" relative="1" as="geometry">
            <mxPoint x="877" y="419.58" as="sourcePoint" />
            <mxPoint x="807" y="419.58" as="targetPoint" />
          </mxGeometry>
        </mxCell>
        <mxCell id="Hn6BxWAOLXY0UYhHqzSq-23" value="" style="endArrow=none;dashed=1;html=1;dashPattern=1 3;strokeWidth=5;rounded=0;" edge="1" parent="1">
          <mxGeometry width="50" height="50" relative="1" as="geometry">
            <mxPoint x="877" y="480" as="sourcePoint" />
            <mxPoint x="807" y="480" as="targetPoint" />
          </mxGeometry>
        </mxCell>
        <mxCell id="Hn6BxWAOLXY0UYhHqzSq-24" value="" style="endArrow=none;dashed=1;html=1;dashPattern=1 3;strokeWidth=5;rounded=0;" edge="1" parent="1">
          <mxGeometry width="50" height="50" relative="1" as="geometry">
            <mxPoint x="877" y="518.58" as="sourcePoint" />
            <mxPoint x="807" y="518.58" as="targetPoint" />
          </mxGeometry>
        </mxCell>
        <mxCell id="Hn6BxWAOLXY0UYhHqzSq-28" style="edgeStyle=orthogonalEdgeStyle;rounded=0;orthogonalLoop=1;jettySize=auto;html=1;exitX=0.5;exitY=0;exitDx=0;exitDy=0;entryX=0.5;entryY=1;entryDx=0;entryDy=0;" edge="1" source="Hn6BxWAOLXY0UYhHqzSq-29" target="Hn6BxWAOLXY0UYhHqzSq-30" parent="1">
          <mxGeometry relative="1" as="geometry">
            <Array as="points">
              <mxPoint x="770" y="519" />
            </Array>
          </mxGeometry>
        </mxCell>
        <mxCell id="Hn6BxWAOLXY0UYhHqzSq-29" value="T0" style="ellipse;whiteSpace=wrap;html=1;aspect=fixed;direction=south;" vertex="1" parent="1">
          <mxGeometry x="680" y="499" width="40" height="40" as="geometry" />
        </mxCell>
        <mxCell id="Hn6BxWAOLXY0UYhHqzSq-30" value="&lt;font style=&quot;font-size: 24px;&quot;&gt;x&lt;/font&gt;" style="ellipse;whiteSpace=wrap;html=1;aspect=fixed;" vertex="1" parent="1">
          <mxGeometry x="750" y="459" width="40" height="40" as="geometry" />
        </mxCell>
        <mxCell id="Hn6BxWAOLXY0UYhHqzSq-31" value="&lt;font style=&quot;font-size: 24px;&quot;&gt;+&lt;/font&gt;" style="ellipse;whiteSpace=wrap;html=1;aspect=fixed;" vertex="1" parent="1">
          <mxGeometry x="750" y="400" width="40" height="40" as="geometry" />
        </mxCell>
        <mxCell id="Hn6BxWAOLXY0UYhHqzSq-32" value="&lt;font style=&quot;font-size: 24px;&quot;&gt;+&lt;/font&gt;" style="ellipse;whiteSpace=wrap;html=1;aspect=fixed;" vertex="1" parent="1">
          <mxGeometry x="750" y="311" width="40" height="40" as="geometry" />
        </mxCell>
        <mxCell id="Hn6BxWAOLXY0UYhHqzSq-33" value="&lt;font style=&quot;font-size: 24px;&quot;&gt;x&lt;/font&gt;" style="ellipse;whiteSpace=wrap;html=1;aspect=fixed;" vertex="1" parent="1">
          <mxGeometry x="750" y="251" width="40" height="40" as="geometry" />
        </mxCell>
        <mxCell id="Hn6BxWAOLXY0UYhHqzSq-41" style="edgeStyle=orthogonalEdgeStyle;rounded=0;orthogonalLoop=1;jettySize=auto;html=1;exitX=0.5;exitY=0;exitDx=0;exitDy=0;entryX=0.5;entryY=0;entryDx=0;entryDy=0;" edge="1" parent="1" source="Hn6BxWAOLXY0UYhHqzSq-34" target="Hn6BxWAOLXY0UYhHqzSq-40">
          <mxGeometry relative="1" as="geometry" />
        </mxCell>
        <mxCell id="Hn6BxWAOLXY0UYhHqzSq-34" value="T0" style="ellipse;whiteSpace=wrap;html=1;aspect=fixed;direction=south;" vertex="1" parent="1">
          <mxGeometry x="910" y="211" width="40" height="40" as="geometry" />
        </mxCell>
        <mxCell id="Hn6BxWAOLXY0UYhHqzSq-35" style="edgeStyle=orthogonalEdgeStyle;rounded=0;orthogonalLoop=1;jettySize=auto;html=1;exitX=0.5;exitY=0;exitDx=0;exitDy=0;entryX=0.5;entryY=1;entryDx=0;entryDy=0;" edge="1" parent="1" source="Hn6BxWAOLXY0UYhHqzSq-36" target="Hn6BxWAOLXY0UYhHqzSq-37">
          <mxGeometry relative="1" as="geometry">
            <Array as="points">
              <mxPoint x="1000" y="519" />
            </Array>
          </mxGeometry>
        </mxCell>
        <mxCell id="Hn6BxWAOLXY0UYhHqzSq-36" value="T0" style="ellipse;whiteSpace=wrap;html=1;aspect=fixed;direction=south;" vertex="1" parent="1">
          <mxGeometry x="910" y="499" width="40" height="40" as="geometry" />
        </mxCell>
        <mxCell id="Hn6BxWAOLXY0UYhHqzSq-43" style="edgeStyle=orthogonalEdgeStyle;rounded=0;orthogonalLoop=1;jettySize=auto;html=1;exitX=0.5;exitY=0;exitDx=0;exitDy=0;entryX=0.5;entryY=1;entryDx=0;entryDy=0;" edge="1" parent="1" source="Hn6BxWAOLXY0UYhHqzSq-37" target="Hn6BxWAOLXY0UYhHqzSq-38">
          <mxGeometry relative="1" as="geometry" />
        </mxCell>
        <mxCell id="Hn6BxWAOLXY0UYhHqzSq-37" value="&lt;font style=&quot;font-size: 24px;&quot;&gt;x&lt;/font&gt;" style="ellipse;whiteSpace=wrap;html=1;aspect=fixed;" vertex="1" parent="1">
          <mxGeometry x="980" y="459" width="40" height="40" as="geometry" />
        </mxCell>
        <mxCell id="Hn6BxWAOLXY0UYhHqzSq-44" style="edgeStyle=orthogonalEdgeStyle;rounded=0;orthogonalLoop=1;jettySize=auto;html=1;exitX=1;exitY=0.5;exitDx=0;exitDy=0;" edge="1" parent="1" source="Hn6BxWAOLXY0UYhHqzSq-38">
          <mxGeometry relative="1" as="geometry">
            <mxPoint x="1110" y="420" as="targetPoint" />
          </mxGeometry>
        </mxCell>
        <mxCell id="Hn6BxWAOLXY0UYhHqzSq-38" value="&lt;font style=&quot;font-size: 24px;&quot;&gt;+&lt;/font&gt;" style="ellipse;whiteSpace=wrap;html=1;aspect=fixed;" vertex="1" parent="1">
          <mxGeometry x="980" y="400" width="40" height="40" as="geometry" />
        </mxCell>
        <mxCell id="Hn6BxWAOLXY0UYhHqzSq-45" style="edgeStyle=orthogonalEdgeStyle;rounded=0;orthogonalLoop=1;jettySize=auto;html=1;exitX=1;exitY=0.5;exitDx=0;exitDy=0;" edge="1" parent="1" source="Hn6BxWAOLXY0UYhHqzSq-39">
          <mxGeometry relative="1" as="geometry">
            <mxPoint x="1110" y="331" as="targetPoint" />
          </mxGeometry>
        </mxCell>
        <mxCell id="Hn6BxWAOLXY0UYhHqzSq-39" value="&lt;font style=&quot;font-size: 24px;&quot;&gt;+&lt;/font&gt;" style="ellipse;whiteSpace=wrap;html=1;aspect=fixed;" vertex="1" parent="1">
          <mxGeometry x="980" y="311" width="40" height="40" as="geometry" />
        </mxCell>
        <mxCell id="Hn6BxWAOLXY0UYhHqzSq-42" style="edgeStyle=orthogonalEdgeStyle;rounded=0;orthogonalLoop=1;jettySize=auto;html=1;exitX=0.5;exitY=1;exitDx=0;exitDy=0;" edge="1" parent="1" source="Hn6BxWAOLXY0UYhHqzSq-40" target="Hn6BxWAOLXY0UYhHqzSq-39">
          <mxGeometry relative="1" as="geometry" />
        </mxCell>
        <mxCell id="Hn6BxWAOLXY0UYhHqzSq-40" value="&lt;font style=&quot;font-size: 24px;&quot;&gt;x&lt;/font&gt;" style="ellipse;whiteSpace=wrap;html=1;aspect=fixed;" vertex="1" parent="1">
          <mxGeometry x="980" y="251" width="40" height="40" as="geometry" />
        </mxCell>
        <mxCell id="Hn6BxWAOLXY0UYhHqzSq-46" value="M28/1" style="text;html=1;strokeColor=none;fillColor=none;align=center;verticalAlign=middle;whiteSpace=wrap;rounded=0;fontSize=18;" vertex="1" parent="1">
          <mxGeometry x="1030" y="281" width="40" height="30" as="geometry" />
        </mxCell>
        <mxCell id="Hn6BxWAOLXY0UYhHqzSq-47" value="M28/2" style="text;html=1;strokeColor=none;fillColor=none;align=center;verticalAlign=middle;whiteSpace=wrap;rounded=0;fontSize=18;" vertex="1" parent="1">
          <mxGeometry x="1030" y="449" width="40" height="30" as="geometry" />
        </mxCell>
        <mxCell id="Hn6BxWAOLXY0UYhHqzSq-48" value="P27/2" style="text;html=1;strokeColor=none;fillColor=none;align=center;verticalAlign=middle;whiteSpace=wrap;rounded=0;fontSize=18;" vertex="1" parent="1">
          <mxGeometry x="940" y="390" width="40" height="30" as="geometry" />
        </mxCell>
        <mxCell id="Hn6BxWAOLXY0UYhHqzSq-49" value="P27/1" style="text;html=1;strokeColor=none;fillColor=none;align=center;verticalAlign=middle;whiteSpace=wrap;rounded=0;fontSize=18;" vertex="1" parent="1">
          <mxGeometry x="940" y="340" width="40" height="30" as="geometry" />
        </mxCell>
        <mxCell id="Hn6BxWAOLXY0UYhHqzSq-51" value="" style="endArrow=classic;html=1;rounded=0;entryX=0.5;entryY=1;entryDx=0;entryDy=0;" edge="1" parent="1" target="naJt_FXr0nLqM0hUbWSA-74">
          <mxGeometry width="50" height="50" relative="1" as="geometry">
            <mxPoint x="290" y="690" as="sourcePoint" />
            <mxPoint x="340" y="690" as="targetPoint" />
          </mxGeometry>
        </mxCell>
        <mxCell id="Hn6BxWAOLXY0UYhHqzSq-52" value="" style="endArrow=classic;html=1;rounded=0;entryX=0.5;entryY=1;entryDx=0;entryDy=0;" edge="1" parent="1" target="naJt_FXr0nLqM0hUbWSA-79">
          <mxGeometry width="50" height="50" relative="1" as="geometry">
            <mxPoint x="290" y="849.47" as="sourcePoint" />
            <mxPoint x="390" y="850" as="targetPoint" />
          </mxGeometry>
        </mxCell>
      </root>
    </mxGraphModel>
  </diagram>
</mxfile>
